<svg xmlns="http://www.w3.org/2000/svg" height="64px" viewBox="0 0 370 86.73" preserveAspectRatio="none"><defs><style>.cls-1{fill:#fff;}</style></defs><g id="Layer_2" data-name="Layer 2"><g id="Layer_1-2" data-name="Layer 1"><path class="cls-1" d="M217.8,37.84c-2.28-.67-4.74-1.42-7.2-2.19-4.24-1.32-8.71-2.77-13.2-4.28-9.82-3.29-20-6.95-30.4-10.81C149.1,13.92,133.28,8.65,118,5c-1.65-.39-3.55-.81-5.44-1.21l-2.46-.5L108.51,3c-3.85-.73-7.65-1.34-11.69-1.84L94.41.9h0c-1-.11-2-.21-3.17-.32C63.73-1.9,36.07,3.38,0,19.56V86.73H370V52.56C309.53,58.39,263.75,51.48,217.8,37.84Z"/></g></g></svg>